<mxfile host="app.diagrams.net" modified="2023-03-22T16:37:08.097Z" agent="5.0 (Macintosh)" etag="MTBKSwoY6EaWuZOi94fq" compressed="false" version="21.0.10" type="device">
  <diagram name="Page-1" id="3VUaAArCrD9sAk415-6U">
    <mxGraphModel dx="1363" dy="877" grid="1" gridSize="10" guides="1" tooltips="1" connect="1" arrows="1" fold="1" page="1" pageScale="1" pageWidth="1100" pageHeight="1700" math="0" shadow="0">
      <root>
        <mxCell id="0" />
        <mxCell id="1" parent="0" />
        <mxCell id="1L-1GmVNOJaXIpUXJjiE-1" value="Library Website" style="swimlane;startSize=20;horizontal=1;containerType=tree;" parent="1" vertex="1">
          <mxGeometry x="160" width="640" height="1240" as="geometry" />
        </mxCell>
        <mxCell id="1L-1GmVNOJaXIpUXJjiE-5" value="Log in" style="ellipse;whiteSpace=wrap;html=1;strokeColor=#0080ff;" parent="1L-1GmVNOJaXIpUXJjiE-1" vertex="1">
          <mxGeometry x="40" y="80" width="80" height="60" as="geometry" />
        </mxCell>
        <mxCell id="1L-1GmVNOJaXIpUXJjiE-6" value="Verify Credentials" style="ellipse;whiteSpace=wrap;html=1;" parent="1L-1GmVNOJaXIpUXJjiE-1" vertex="1">
          <mxGeometry x="220" y="40" width="100" height="60" as="geometry" />
        </mxCell>
        <mxCell id="1L-1GmVNOJaXIpUXJjiE-7" value="Display Login Error" style="ellipse;whiteSpace=wrap;html=1;" parent="1L-1GmVNOJaXIpUXJjiE-1" vertex="1">
          <mxGeometry x="220" y="120" width="100" height="60" as="geometry" />
        </mxCell>
        <mxCell id="1L-1GmVNOJaXIpUXJjiE-9" value="&amp;lt;&amp;lt;include&amp;gt;&amp;gt;" style="endArrow=open;endSize=12;dashed=1;html=1;rounded=0;exitX=1;exitY=0;exitDx=0;exitDy=0;entryX=0;entryY=0.5;entryDx=0;entryDy=0;" parent="1L-1GmVNOJaXIpUXJjiE-1" source="1L-1GmVNOJaXIpUXJjiE-5" target="1L-1GmVNOJaXIpUXJjiE-6" edge="1">
          <mxGeometry x="-0.0906" width="160" relative="1" as="geometry">
            <mxPoint x="220" y="490" as="sourcePoint" />
            <mxPoint x="380" y="490" as="targetPoint" />
            <mxPoint as="offset" />
          </mxGeometry>
        </mxCell>
        <mxCell id="1L-1GmVNOJaXIpUXJjiE-10" value="&amp;lt;&amp;lt;extend&amp;gt;&amp;gt;" style="endArrow=open;endSize=12;dashed=1;html=1;rounded=0;entryX=1;entryY=1;entryDx=0;entryDy=0;exitX=0;exitY=0.5;exitDx=0;exitDy=0;" parent="1L-1GmVNOJaXIpUXJjiE-1" source="1L-1GmVNOJaXIpUXJjiE-7" target="1L-1GmVNOJaXIpUXJjiE-5" edge="1">
          <mxGeometry width="160" relative="1" as="geometry">
            <mxPoint x="190" y="350" as="sourcePoint" />
            <mxPoint x="350" y="350" as="targetPoint" />
          </mxGeometry>
        </mxCell>
        <mxCell id="1L-1GmVNOJaXIpUXJjiE-13" value="Search Library Catalog" style="ellipse;whiteSpace=wrap;html=1;" parent="1L-1GmVNOJaXIpUXJjiE-1" vertex="1">
          <mxGeometry x="40" y="320" width="100" height="60" as="geometry" />
        </mxCell>
        <mxCell id="1L-1GmVNOJaXIpUXJjiE-14" value="Search Databases" style="ellipse;whiteSpace=wrap;html=1;" parent="1L-1GmVNOJaXIpUXJjiE-1" vertex="1">
          <mxGeometry x="160" y="320" width="100" height="60" as="geometry" />
        </mxCell>
        <mxCell id="1L-1GmVNOJaXIpUXJjiE-15" value="Search Scholarly Journals" style="ellipse;whiteSpace=wrap;html=1;" parent="1L-1GmVNOJaXIpUXJjiE-1" vertex="1">
          <mxGeometry x="280" y="320" width="120" height="60" as="geometry" />
        </mxCell>
        <mxCell id="1L-1GmVNOJaXIpUXJjiE-19" value="Add Book to Collection" style="ellipse;whiteSpace=wrap;html=1;strokeColor=#007FFF;" parent="1L-1GmVNOJaXIpUXJjiE-1" vertex="1">
          <mxGeometry x="40" y="680" width="120" height="80" as="geometry" />
        </mxCell>
        <mxCell id="1L-1GmVNOJaXIpUXJjiE-22" value="Verify in Library Catalog" style="ellipse;whiteSpace=wrap;html=1;" parent="1L-1GmVNOJaXIpUXJjiE-1" vertex="1">
          <mxGeometry x="260" y="640" width="120" height="60" as="geometry" />
        </mxCell>
        <mxCell id="1L-1GmVNOJaXIpUXJjiE-23" value="Display Unavailable Error" style="ellipse;whiteSpace=wrap;html=1;" parent="1L-1GmVNOJaXIpUXJjiE-1" vertex="1">
          <mxGeometry x="260" y="740" width="120" height="60" as="geometry" />
        </mxCell>
        <mxCell id="1L-1GmVNOJaXIpUXJjiE-24" value="&amp;lt;&amp;lt;include&amp;gt;&amp;gt;" style="endArrow=open;endSize=12;dashed=1;html=1;rounded=0;exitX=1;exitY=0;exitDx=0;exitDy=0;entryX=0;entryY=0.5;entryDx=0;entryDy=0;" parent="1L-1GmVNOJaXIpUXJjiE-1" source="1L-1GmVNOJaXIpUXJjiE-19" target="1L-1GmVNOJaXIpUXJjiE-22" edge="1">
          <mxGeometry x="-0.0906" width="160" relative="1" as="geometry">
            <mxPoint x="228" y="710" as="sourcePoint" />
            <mxPoint x="360" y="696" as="targetPoint" />
            <mxPoint as="offset" />
          </mxGeometry>
        </mxCell>
        <mxCell id="1L-1GmVNOJaXIpUXJjiE-25" value="&amp;lt;&amp;lt;extend&amp;gt;&amp;gt;" style="endArrow=open;endSize=12;dashed=1;html=1;rounded=0;entryX=1;entryY=1;entryDx=0;entryDy=0;exitX=0;exitY=0.5;exitDx=0;exitDy=0;" parent="1L-1GmVNOJaXIpUXJjiE-1" source="1L-1GmVNOJaXIpUXJjiE-23" target="1L-1GmVNOJaXIpUXJjiE-19" edge="1">
          <mxGeometry width="160" relative="1" as="geometry">
            <mxPoint x="156" y="729" as="sourcePoint" />
            <mxPoint x="24" y="710" as="targetPoint" />
          </mxGeometry>
        </mxCell>
        <mxCell id="1L-1GmVNOJaXIpUXJjiE-33" value="Search Repository" style="ellipse;whiteSpace=wrap;html=1;strokeColor=#007FFF;" parent="1L-1GmVNOJaXIpUXJjiE-1" vertex="1">
          <mxGeometry x="150" y="200" width="120" height="80" as="geometry" />
        </mxCell>
        <mxCell id="1L-1GmVNOJaXIpUXJjiE-34" value="" style="endArrow=block;endFill=0;endSize=12;html=1;rounded=0;exitX=0.5;exitY=0;exitDx=0;exitDy=0;entryX=0.5;entryY=1;entryDx=0;entryDy=0;" parent="1L-1GmVNOJaXIpUXJjiE-1" source="1L-1GmVNOJaXIpUXJjiE-13" target="1L-1GmVNOJaXIpUXJjiE-33" edge="1">
          <mxGeometry width="160" relative="1" as="geometry">
            <mxPoint x="240" y="430" as="sourcePoint" />
            <mxPoint x="400" y="430" as="targetPoint" />
            <Array as="points">
              <mxPoint x="90" y="300" />
              <mxPoint x="210" y="300" />
            </Array>
          </mxGeometry>
        </mxCell>
        <mxCell id="1L-1GmVNOJaXIpUXJjiE-35" value="Add Notes to Book" style="ellipse;whiteSpace=wrap;html=1;strokeColor=#007FFF;" parent="1L-1GmVNOJaXIpUXJjiE-1" vertex="1">
          <mxGeometry x="150" y="820" width="120" height="80" as="geometry" />
        </mxCell>
        <mxCell id="1L-1GmVNOJaXIpUXJjiE-36" value="Add Text" style="ellipse;whiteSpace=wrap;html=1;" parent="1L-1GmVNOJaXIpUXJjiE-1" vertex="1">
          <mxGeometry x="40" y="940" width="100" height="60" as="geometry" />
        </mxCell>
        <mxCell id="1L-1GmVNOJaXIpUXJjiE-37" value="Add Bookmark" style="ellipse;whiteSpace=wrap;html=1;" parent="1L-1GmVNOJaXIpUXJjiE-1" vertex="1">
          <mxGeometry x="160" y="940" width="100" height="60" as="geometry" />
        </mxCell>
        <mxCell id="1L-1GmVNOJaXIpUXJjiE-38" value="" style="endArrow=none;html=1;rounded=0;exitX=0.5;exitY=0;exitDx=0;exitDy=0;" parent="1L-1GmVNOJaXIpUXJjiE-1" source="1L-1GmVNOJaXIpUXJjiE-37" edge="1">
          <mxGeometry width="50" height="50" relative="1" as="geometry">
            <mxPoint x="250" y="1010" as="sourcePoint" />
            <mxPoint x="210" y="920" as="targetPoint" />
          </mxGeometry>
        </mxCell>
        <mxCell id="1L-1GmVNOJaXIpUXJjiE-39" value="" style="endArrow=none;html=1;rounded=0;entryX=0.5;entryY=0;entryDx=0;entryDy=0;" parent="1L-1GmVNOJaXIpUXJjiE-1" target="1L-1GmVNOJaXIpUXJjiE-40" edge="1">
          <mxGeometry width="50" height="50" relative="1" as="geometry">
            <mxPoint x="210" y="920" as="sourcePoint" />
            <mxPoint x="345" y="940" as="targetPoint" />
            <Array as="points">
              <mxPoint x="330" y="920" />
            </Array>
          </mxGeometry>
        </mxCell>
        <mxCell id="1L-1GmVNOJaXIpUXJjiE-40" value="Add Highlights" style="ellipse;whiteSpace=wrap;html=1;" parent="1L-1GmVNOJaXIpUXJjiE-1" vertex="1">
          <mxGeometry x="280" y="940" width="100" height="60" as="geometry" />
        </mxCell>
        <mxCell id="1L-1GmVNOJaXIpUXJjiE-41" value="" style="endArrow=block;endFill=0;endSize=12;html=1;rounded=0;exitX=0.5;exitY=0;exitDx=0;exitDy=0;entryX=0.5;entryY=1;entryDx=0;entryDy=0;" parent="1L-1GmVNOJaXIpUXJjiE-1" source="1L-1GmVNOJaXIpUXJjiE-36" target="1L-1GmVNOJaXIpUXJjiE-35" edge="1">
          <mxGeometry width="160" relative="1" as="geometry">
            <mxPoint x="240" y="730" as="sourcePoint" />
            <mxPoint x="400" y="730" as="targetPoint" />
            <Array as="points">
              <mxPoint x="90" y="920" />
              <mxPoint x="210" y="920" />
            </Array>
          </mxGeometry>
        </mxCell>
        <mxCell id="1L-1GmVNOJaXIpUXJjiE-43" value="View Literature" style="ellipse;whiteSpace=wrap;html=1;strokeColor=#007FFF;" parent="1L-1GmVNOJaXIpUXJjiE-1" vertex="1">
          <mxGeometry x="150" y="400" width="120" height="80" as="geometry" />
        </mxCell>
        <mxCell id="1L-1GmVNOJaXIpUXJjiE-44" value="View Online" style="ellipse;whiteSpace=wrap;html=1;" parent="1L-1GmVNOJaXIpUXJjiE-1" vertex="1">
          <mxGeometry x="80" y="520" width="100" height="60" as="geometry" />
        </mxCell>
        <mxCell id="1L-1GmVNOJaXIpUXJjiE-45" value="Checkout for Pickup" style="ellipse;whiteSpace=wrap;html=1;" parent="1L-1GmVNOJaXIpUXJjiE-1" vertex="1">
          <mxGeometry x="240" y="520" width="100" height="60" as="geometry" />
        </mxCell>
        <mxCell id="1L-1GmVNOJaXIpUXJjiE-46" value="Check Availability" style="ellipse;whiteSpace=wrap;html=1;" parent="1L-1GmVNOJaXIpUXJjiE-1" vertex="1">
          <mxGeometry x="440" y="410" width="120" height="60" as="geometry" />
        </mxCell>
        <mxCell id="1L-1GmVNOJaXIpUXJjiE-47" value="Display Unavailable Error" style="ellipse;whiteSpace=wrap;html=1;" parent="1L-1GmVNOJaXIpUXJjiE-1" vertex="1">
          <mxGeometry x="440" y="480" width="120" height="60" as="geometry" />
        </mxCell>
        <mxCell id="1L-1GmVNOJaXIpUXJjiE-48" value="&amp;lt;&amp;lt;include&amp;gt;&amp;gt;" style="endArrow=open;endSize=12;dashed=1;html=1;rounded=0;exitX=1;exitY=0;exitDx=0;exitDy=0;entryX=0;entryY=0.5;entryDx=0;entryDy=0;" parent="1L-1GmVNOJaXIpUXJjiE-1" source="1L-1GmVNOJaXIpUXJjiE-45" target="1L-1GmVNOJaXIpUXJjiE-46" edge="1">
          <mxGeometry x="-0.0906" width="160" relative="1" as="geometry">
            <mxPoint x="300" y="489" as="sourcePoint" />
            <mxPoint x="432" y="470" as="targetPoint" />
            <mxPoint as="offset" />
          </mxGeometry>
        </mxCell>
        <mxCell id="1L-1GmVNOJaXIpUXJjiE-49" value="&amp;lt;&amp;lt;extend&amp;gt;&amp;gt;" style="endArrow=open;endSize=12;dashed=1;html=1;rounded=0;entryX=1;entryY=0.5;entryDx=0;entryDy=0;exitX=0;exitY=0.5;exitDx=0;exitDy=0;" parent="1L-1GmVNOJaXIpUXJjiE-1" source="1L-1GmVNOJaXIpUXJjiE-47" target="1L-1GmVNOJaXIpUXJjiE-45" edge="1">
          <mxGeometry width="160" relative="1" as="geometry">
            <mxPoint x="440" y="629" as="sourcePoint" />
            <mxPoint x="308" y="610" as="targetPoint" />
          </mxGeometry>
        </mxCell>
        <mxCell id="1L-1GmVNOJaXIpUXJjiE-50" value="" style="endArrow=block;endFill=0;endSize=12;html=1;rounded=0;exitX=0.5;exitY=0;exitDx=0;exitDy=0;entryX=0.5;entryY=1;entryDx=0;entryDy=0;" parent="1L-1GmVNOJaXIpUXJjiE-1" source="1L-1GmVNOJaXIpUXJjiE-44" target="1L-1GmVNOJaXIpUXJjiE-43" edge="1">
          <mxGeometry width="160" relative="1" as="geometry">
            <mxPoint x="250" y="490" as="sourcePoint" />
            <mxPoint x="410" y="490" as="targetPoint" />
            <Array as="points">
              <mxPoint x="130" y="500" />
              <mxPoint x="210" y="500" />
            </Array>
          </mxGeometry>
        </mxCell>
        <mxCell id="1L-1GmVNOJaXIpUXJjiE-68" value="Reserve Study Room" style="ellipse;whiteSpace=wrap;html=1;strokeColor=#007FFF;" parent="1L-1GmVNOJaXIpUXJjiE-1" vertex="1">
          <mxGeometry x="160" y="1020" width="100" height="60" as="geometry" />
        </mxCell>
        <mxCell id="1L-1GmVNOJaXIpUXJjiE-69" value="Check availability" style="ellipse;whiteSpace=wrap;html=1;" parent="1L-1GmVNOJaXIpUXJjiE-1" vertex="1">
          <mxGeometry x="260" y="1120" width="120" height="60" as="geometry" />
        </mxCell>
        <mxCell id="1L-1GmVNOJaXIpUXJjiE-70" value="Display Unavailable Error" style="ellipse;whiteSpace=wrap;html=1;" parent="1L-1GmVNOJaXIpUXJjiE-1" vertex="1">
          <mxGeometry x="40" y="1120" width="120" height="60" as="geometry" />
        </mxCell>
        <mxCell id="1L-1GmVNOJaXIpUXJjiE-77" value="&amp;lt;&amp;lt;include&amp;gt;&amp;gt;" style="endArrow=open;endSize=12;dashed=1;html=1;rounded=0;exitX=0.5;exitY=0;exitDx=0;exitDy=0;entryX=1;entryY=1;entryDx=0;entryDy=0;" parent="1L-1GmVNOJaXIpUXJjiE-1" source="1L-1GmVNOJaXIpUXJjiE-69" target="1L-1GmVNOJaXIpUXJjiE-68" edge="1">
          <mxGeometry x="-0.191" width="160" relative="1" as="geometry">
            <mxPoint x="110" y="1130" as="sourcePoint" />
            <mxPoint x="180" y="1080" as="targetPoint" />
            <mxPoint as="offset" />
          </mxGeometry>
        </mxCell>
        <mxCell id="w-UUbE80pyUFBBzgv-nw-1" value="Check Pre-Existing Fines" style="ellipse;whiteSpace=wrap;html=1;" vertex="1" parent="1L-1GmVNOJaXIpUXJjiE-1">
          <mxGeometry x="440" y="560" width="120" height="60" as="geometry" />
        </mxCell>
        <mxCell id="w-UUbE80pyUFBBzgv-nw-2" value="Display Ineligible Error" style="ellipse;whiteSpace=wrap;html=1;" vertex="1" parent="1L-1GmVNOJaXIpUXJjiE-1">
          <mxGeometry x="440" y="630" width="120" height="60" as="geometry" />
        </mxCell>
        <mxCell id="w-UUbE80pyUFBBzgv-nw-3" value="&amp;lt;&amp;lt;include&amp;gt;&amp;gt;" style="endArrow=open;endSize=12;dashed=1;html=1;rounded=0;exitX=1;exitY=1;exitDx=0;exitDy=0;entryX=0;entryY=0.5;entryDx=0;entryDy=0;" edge="1" parent="1L-1GmVNOJaXIpUXJjiE-1" source="1L-1GmVNOJaXIpUXJjiE-45" target="w-UUbE80pyUFBBzgv-nw-1">
          <mxGeometry x="-0.0906" width="160" relative="1" as="geometry">
            <mxPoint x="325" y="609" as="sourcePoint" />
            <mxPoint x="440" y="520" as="targetPoint" />
            <mxPoint as="offset" />
          </mxGeometry>
        </mxCell>
        <mxCell id="w-UUbE80pyUFBBzgv-nw-4" value="&amp;lt;&amp;lt;extend&amp;gt;&amp;gt;" style="endArrow=open;endSize=12;dashed=1;html=1;rounded=0;entryX=0.5;entryY=1;entryDx=0;entryDy=0;exitX=0;exitY=0.5;exitDx=0;exitDy=0;" edge="1" parent="1L-1GmVNOJaXIpUXJjiE-1" source="w-UUbE80pyUFBBzgv-nw-2" target="1L-1GmVNOJaXIpUXJjiE-45">
          <mxGeometry width="160" relative="1" as="geometry">
            <mxPoint x="390" y="590" as="sourcePoint" />
            <mxPoint x="290" y="630" as="targetPoint" />
          </mxGeometry>
        </mxCell>
        <mxCell id="1L-1GmVNOJaXIpUXJjiE-17" value="" style="endArrow=none;html=1;rounded=0;exitX=0.5;exitY=0;exitDx=0;exitDy=0;" parent="1" source="1L-1GmVNOJaXIpUXJjiE-14" edge="1">
          <mxGeometry width="50" height="50" relative="1" as="geometry">
            <mxPoint x="440" y="310" as="sourcePoint" />
            <mxPoint x="370" y="300" as="targetPoint" />
          </mxGeometry>
        </mxCell>
        <mxCell id="1L-1GmVNOJaXIpUXJjiE-18" value="" style="endArrow=none;html=1;rounded=0;entryX=0.5;entryY=0;entryDx=0;entryDy=0;" parent="1" target="1L-1GmVNOJaXIpUXJjiE-15" edge="1">
          <mxGeometry width="50" height="50" relative="1" as="geometry">
            <mxPoint x="370" y="300" as="sourcePoint" />
            <mxPoint x="490" y="340" as="targetPoint" />
            <Array as="points">
              <mxPoint x="400" y="300" />
              <mxPoint x="500" y="300" />
            </Array>
          </mxGeometry>
        </mxCell>
        <mxCell id="1L-1GmVNOJaXIpUXJjiE-51" value="" style="endArrow=none;html=1;rounded=0;exitX=0.5;exitY=0;exitDx=0;exitDy=0;" parent="1" source="1L-1GmVNOJaXIpUXJjiE-45" edge="1">
          <mxGeometry width="50" height="50" relative="1" as="geometry">
            <mxPoint x="470" y="510" as="sourcePoint" />
            <mxPoint x="370" y="500" as="targetPoint" />
            <Array as="points">
              <mxPoint x="450" y="500" />
            </Array>
          </mxGeometry>
        </mxCell>
        <mxCell id="1L-1GmVNOJaXIpUXJjiE-52" value="Student" style="shape=umlActor;verticalLabelPosition=bottom;verticalAlign=top;html=1;" parent="1" vertex="1">
          <mxGeometry x="60" y="840" width="30" height="60" as="geometry" />
        </mxCell>
        <mxCell id="1L-1GmVNOJaXIpUXJjiE-64" value="" style="endArrow=none;html=1;rounded=0;exitX=1;exitY=0.3333333333333333;exitDx=0;exitDy=0;exitPerimeter=0;entryX=0;entryY=0.5;entryDx=0;entryDy=0;" parent="1" source="1L-1GmVNOJaXIpUXJjiE-52" target="1L-1GmVNOJaXIpUXJjiE-5" edge="1">
          <mxGeometry width="50" height="50" relative="1" as="geometry">
            <mxPoint x="260" y="570" as="sourcePoint" />
            <mxPoint x="310" y="520" as="targetPoint" />
          </mxGeometry>
        </mxCell>
        <mxCell id="1L-1GmVNOJaXIpUXJjiE-65" value="" style="endArrow=none;html=1;rounded=0;exitX=1;exitY=0.3333333333333333;exitDx=0;exitDy=0;exitPerimeter=0;entryX=0;entryY=0.5;entryDx=0;entryDy=0;" parent="1" source="1L-1GmVNOJaXIpUXJjiE-52" target="1L-1GmVNOJaXIpUXJjiE-33" edge="1">
          <mxGeometry width="50" height="50" relative="1" as="geometry">
            <mxPoint x="260" y="570" as="sourcePoint" />
            <mxPoint x="200" y="200" as="targetPoint" />
            <Array as="points">
              <mxPoint x="200" y="240" />
            </Array>
          </mxGeometry>
        </mxCell>
        <mxCell id="1L-1GmVNOJaXIpUXJjiE-66" value="" style="endArrow=none;html=1;rounded=0;exitX=1;exitY=0.3333333333333333;exitDx=0;exitDy=0;exitPerimeter=0;entryX=0;entryY=0.5;entryDx=0;entryDy=0;" parent="1" source="1L-1GmVNOJaXIpUXJjiE-52" target="1L-1GmVNOJaXIpUXJjiE-43" edge="1">
          <mxGeometry width="50" height="50" relative="1" as="geometry">
            <mxPoint x="260" y="570" as="sourcePoint" />
            <mxPoint x="310" y="520" as="targetPoint" />
            <Array as="points">
              <mxPoint x="200" y="440" />
            </Array>
          </mxGeometry>
        </mxCell>
        <mxCell id="1L-1GmVNOJaXIpUXJjiE-67" value="" style="endArrow=none;html=1;rounded=0;exitX=1;exitY=0.3333333333333333;exitDx=0;exitDy=0;exitPerimeter=0;entryX=0;entryY=0.5;entryDx=0;entryDy=0;" parent="1" source="1L-1GmVNOJaXIpUXJjiE-52" target="1L-1GmVNOJaXIpUXJjiE-19" edge="1">
          <mxGeometry width="50" height="50" relative="1" as="geometry">
            <mxPoint x="260" y="610" as="sourcePoint" />
            <mxPoint x="310" y="560" as="targetPoint" />
          </mxGeometry>
        </mxCell>
        <mxCell id="1L-1GmVNOJaXIpUXJjiE-76" value="&amp;lt;&amp;lt;extend&amp;gt;&amp;gt;" style="endArrow=open;endSize=12;dashed=1;html=1;rounded=0;exitX=0.5;exitY=0;exitDx=0;exitDy=0;" parent="1" source="1L-1GmVNOJaXIpUXJjiE-70" edge="1">
          <mxGeometry x="-0.1622" y="-1" width="160" relative="1" as="geometry">
            <mxPoint x="340" y="960" as="sourcePoint" />
            <mxPoint x="330" y="1070" as="targetPoint" />
            <mxPoint as="offset" />
          </mxGeometry>
        </mxCell>
        <mxCell id="1L-1GmVNOJaXIpUXJjiE-79" value="" style="endArrow=none;html=1;rounded=0;exitX=1;exitY=0.3333333333333333;exitDx=0;exitDy=0;exitPerimeter=0;entryX=0;entryY=0.5;entryDx=0;entryDy=0;" parent="1" source="1L-1GmVNOJaXIpUXJjiE-52" target="1L-1GmVNOJaXIpUXJjiE-35" edge="1">
          <mxGeometry width="50" height="50" relative="1" as="geometry">
            <mxPoint x="130" y="890" as="sourcePoint" />
            <mxPoint x="290" y="850" as="targetPoint" />
          </mxGeometry>
        </mxCell>
        <mxCell id="1L-1GmVNOJaXIpUXJjiE-80" value="" style="endArrow=none;html=1;rounded=0;exitX=1;exitY=0.3333333333333333;exitDx=0;exitDy=0;exitPerimeter=0;entryX=0;entryY=0.5;entryDx=0;entryDy=0;" parent="1" source="1L-1GmVNOJaXIpUXJjiE-52" target="1L-1GmVNOJaXIpUXJjiE-68" edge="1">
          <mxGeometry width="50" height="50" relative="1" as="geometry">
            <mxPoint x="240" y="900" as="sourcePoint" />
            <mxPoint x="290" y="850" as="targetPoint" />
            <Array as="points">
              <mxPoint x="200" y="1050" />
            </Array>
          </mxGeometry>
        </mxCell>
        <mxCell id="1L-1GmVNOJaXIpUXJjiE-81" value="LIbrary" style="shape=umlActor;verticalLabelPosition=bottom;verticalAlign=top;html=1;outlineConnect=0;" parent="1" vertex="1">
          <mxGeometry x="860" y="280" width="30" height="60" as="geometry" />
        </mxCell>
        <mxCell id="1L-1GmVNOJaXIpUXJjiE-85" value="" style="endArrow=none;html=1;rounded=0;exitX=1;exitY=0.5;exitDx=0;exitDy=0;entryX=0;entryY=0.3333333333333333;entryDx=0;entryDy=0;entryPerimeter=0;" parent="1" source="1L-1GmVNOJaXIpUXJjiE-33" target="1L-1GmVNOJaXIpUXJjiE-81" edge="1">
          <mxGeometry width="50" height="50" relative="1" as="geometry">
            <mxPoint x="700" y="650" as="sourcePoint" />
            <mxPoint x="750" y="600" as="targetPoint" />
          </mxGeometry>
        </mxCell>
        <mxCell id="1L-1GmVNOJaXIpUXJjiE-86" value="" style="endArrow=none;html=1;rounded=0;entryX=0;entryY=0.3333333333333333;entryDx=0;entryDy=0;entryPerimeter=0;exitX=1;exitY=0.5;exitDx=0;exitDy=0;" parent="1" source="1L-1GmVNOJaXIpUXJjiE-43" target="1L-1GmVNOJaXIpUXJjiE-81" edge="1">
          <mxGeometry width="50" height="50" relative="1" as="geometry">
            <mxPoint x="700" y="650" as="sourcePoint" />
            <mxPoint x="750" y="600" as="targetPoint" />
            <Array as="points">
              <mxPoint x="760" y="370" />
            </Array>
          </mxGeometry>
        </mxCell>
        <mxCell id="1L-1GmVNOJaXIpUXJjiE-87" value="" style="endArrow=none;html=1;rounded=0;entryX=0;entryY=0.3333333333333333;entryDx=0;entryDy=0;entryPerimeter=0;exitX=1;exitY=0.5;exitDx=0;exitDy=0;" parent="1" source="1L-1GmVNOJaXIpUXJjiE-68" target="1L-1GmVNOJaXIpUXJjiE-81" edge="1">
          <mxGeometry width="50" height="50" relative="1" as="geometry">
            <mxPoint x="600" y="670" as="sourcePoint" />
            <mxPoint x="850" y="520" as="targetPoint" />
            <Array as="points">
              <mxPoint x="760" y="1050" />
            </Array>
          </mxGeometry>
        </mxCell>
      </root>
    </mxGraphModel>
  </diagram>
</mxfile>
